{
    "asset" : {
        "generator" : "Khronos glTF Blender I/O v1.2.75",
        "version" : "2.0"
    },
    "scene" : 0,
    "scenes" : [
        {
            "name" : "Scene",
            "nodes" : [
                0
            ]
        }
    ],
    "nodes" : [
        {
            "mesh" : 0,
            "name" : "1Story_Mat"
        }
    ],
    "materials" : [
        {
            "doubleSided" : true,
            "name" : "DarkWood",
            "pbrMetallicRoughness" : {}
        },
        {
            "doubleSided" : true,
            "name" : "Bricks",
            "pbrMetallicRoughness" : {}
        },
        {
            "doubleSided" : true,
            "name" : "Main",
            "pbrMetallicRoughness" : {}
        },
        {
            "doubleSided" : true,
            "name" : "Light",
            "pbrMetallicRoughness" : {}
        },
        {
            "doubleSided" : true,
            "name" : "Dark",
            "pbrMetallicRoughness" : {}
        },
        {
            "doubleSided" : true,
            "name" : "White",
            "pbrMetallicRoughness" : {}
        },
        {
            "doubleSided" : true,
            "name" : "Wood",
            "pbrMetallicRoughness" : {}
        },
        {
            "doubleSided" : true,
            "name" : "Glass",
            "pbrMetallicRoughness" : {}
        }
    ],
    "meshes" : [
        {
            "name" : "Cube.040",
            "primitives" : [
                {
                    "attributes" : {
                        "POSITION" : 0,
                        "NORMAL" : 1,
                        "TEXCOORD_0" : 2,
                        "JOINTS_0" : 3,
                        "WEIGHTS_0" : 4
                    },
                    "indices" : 5,
                    "material" : 0
                },
                {
                    "attributes" : {
                        "POSITION" : 6,
                        "NORMAL" : 7,
                        "TEXCOORD_0" : 8,
                        "JOINTS_0" : 9,
                        "WEIGHTS_0" : 10
                    },
                    "indices" : 11,
                    "material" : 1
                },
                {
                    "attributes" : {
                        "POSITION" : 12,
                        "NORMAL" : 13,
                        "TEXCOORD_0" : 14,
                        "JOINTS_0" : 15,
                        "WEIGHTS_0" : 16
                    },
                    "indices" : 17,
                    "material" : 2
                },
                {
                    "attributes" : {
                        "POSITION" : 18,
                        "NORMAL" : 19,
                        "TEXCOORD_0" : 20,
                        "JOINTS_0" : 21,
                        "WEIGHTS_0" : 22
                    },
                    "indices" : 23,
                    "material" : 3
                },
                {
                    "attributes" : {
                        "POSITION" : 24,
                        "NORMAL" : 25,
                        "TEXCOORD_0" : 26,
                        "JOINTS_0" : 27,
                        "WEIGHTS_0" : 28
                    },
                    "indices" : 29,
                    "material" : 4
                },
                {
                    "attributes" : {
                        "POSITION" : 30,
                        "NORMAL" : 31,
                        "TEXCOORD_0" : 32,
                        "JOINTS_0" : 33,
                        "WEIGHTS_0" : 34
                    },
                    "indices" : 35,
                    "material" : 5
                },
                {
                    "attributes" : {
                        "POSITION" : 36,
                        "NORMAL" : 37,
                        "TEXCOORD_0" : 38,
                        "JOINTS_0" : 39,
                        "WEIGHTS_0" : 40
                    },
                    "indices" : 41,
                    "material" : 6
                },
                {
                    "attributes" : {
                        "POSITION" : 42,
                        "NORMAL" : 43,
                        "TEXCOORD_0" : 44,
                        "JOINTS_0" : 45,
                        "WEIGHTS_0" : 46
                    },
                    "indices" : 47,
                    "material" : 7
                }
            ]
        }
    ],
    "accessors" : [
        {
            "bufferView" : 0,
            "componentType" : 5126,
            "count" : 328,
            "max" : [
                0.21932318806648254,
                0.9037653803825378,
                0.9872960448265076
            ],
            "min" : [
                -0.21932318806648254,
                -0.013159370981156826,
                0.9443585872650146
            ],
            "type" : "VEC3"
        },
        {
            "bufferView" : 1,
            "componentType" : 5126,
            "count" : 328,
            "type" : "VEC3"
        },
        {
            "bufferView" : 2,
            "componentType" : 5126,
            "count" : 328,
            "type" : "VEC2"
        },
        {
            "bufferView" : 3,
            "componentType" : 5123,
            "count" : 328,
            "type" : "VEC4"
        },
        {
            "bufferView" : 4,
            "componentType" : 5126,
            "count" : 328,
            "type" : "VEC4"
        },
        {
            "bufferView" : 5,
            "componentType" : 5123,
            "count" : 696,
            "type" : "SCALAR"
        },
        {
            "bufferView" : 6,
            "componentType" : 5126,
            "count" : 732,
            "max" : [
                1.0159869194030762,
                1.6570528745651245,
                1.0161681175231934
            ],
            "min" : [
                -1.0163490772247314,
                0.4445604383945465,
                -1.0161681175231934
            ],
            "type" : "VEC3"
        },
        {
            "bufferView" : 7,
            "componentType" : 5126,
            "count" : 732,
            "type" : "VEC3"
        },
        {
            "bufferView" : 8,
            "componentType" : 5126,
            "count" : 732,
            "type" : "VEC2"
        },
        {
            "bufferView" : 9,
            "componentType" : 5123,
            "count" : 732,
            "type" : "VEC4"
        },
        {
            "bufferView" : 10,
            "componentType" : 5126,
            "count" : 732,
            "type" : "VEC4"
        },
        {
            "bufferView" : 11,
            "componentType" : 5123,
            "count" : 1134,
            "type" : "SCALAR"
        },
        {
            "bufferView" : 12,
            "componentType" : 5126,
            "count" : 138,
            "max" : [
                1.0000001192092896,
                1.4931179285049438,
                1
            ],
            "min" : [
                -0.9999997615814209,
                -0.015192919410765171,
                -1
            ],
            "type" : "VEC3"
        },
        {
            "bufferView" : 13,
            "componentType" : 5126,
            "count" : 138,
            "type" : "VEC3"
        },
        {
            "bufferView" : 14,
            "componentType" : 5126,
            "count" : 138,
            "type" : "VEC2"
        },
        {
            "bufferView" : 15,
            "componentType" : 5123,
            "count" : 138,
            "type" : "VEC4"
        },
        {
            "bufferView" : 16,
            "componentType" : 5126,
            "count" : 138,
            "type" : "VEC4"
        },
        {
            "bufferView" : 17,
            "componentType" : 5123,
            "count" : 294,
            "type" : "SCALAR"
        },
        {
            "bufferView" : 18,
            "componentType" : 5126,
            "count" : 1448,
            "max" : [
                1.077080488204956,
                1.606721043586731,
                1.0770803689956665
            ],
            "min" : [
                -1.0770801305770874,
                1.3294299840927124,
                -1.0770803689956665
            ],
            "type" : "VEC3"
        },
        {
            "bufferView" : 19,
            "componentType" : 5126,
            "count" : 1448,
            "type" : "VEC3"
        },
        {
            "bufferView" : 20,
            "componentType" : 5126,
            "count" : 1448,
            "type" : "VEC2"
        },
        {
            "bufferView" : 21,
            "componentType" : 5123,
            "count" : 1448,
            "type" : "VEC4"
        },
        {
            "bufferView" : 22,
            "componentType" : 5126,
            "count" : 1448,
            "type" : "VEC4"
        },
        {
            "bufferView" : 23,
            "componentType" : 5123,
            "count" : 2514,
            "type" : "SCALAR"
        },
        {
            "bufferView" : 24,
            "componentType" : 5126,
            "count" : 1876,
            "max" : [
                1.0511571168899536,
                1.5738648176193237,
                1.0564407110214233
            ],
            "min" : [
                -1.0517252683639526,
                -0.010213213041424751,
                -1.0525774955749512
            ],
            "type" : "VEC3"
        },
        {
            "bufferView" : 25,
            "componentType" : 5126,
            "count" : 1876,
            "type" : "VEC3"
        },
        {
            "bufferView" : 26,
            "componentType" : 5126,
            "count" : 1876,
            "type" : "VEC2"
        },
        {
            "bufferView" : 27,
            "componentType" : 5123,
            "count" : 1876,
            "type" : "VEC4"
        },
        {
            "bufferView" : 28,
            "componentType" : 5126,
            "count" : 1876,
            "type" : "VEC4"
        },
        {
            "bufferView" : 29,
            "componentType" : 5123,
            "count" : 2820,
            "type" : "SCALAR"
        },
        {
            "bufferView" : 30,
            "componentType" : 5126,
            "count" : 72,
            "max" : [
                1.0194494724273682,
                0.3924316465854645,
                1.0194493532180786
            ],
            "min" : [
                -1.01944899559021,
                0.006552130449563265,
                -1.0194493532180786
            ],
            "type" : "VEC3"
        },
        {
            "bufferView" : 31,
            "componentType" : 5126,
            "count" : 72,
            "type" : "VEC3"
        },
        {
            "bufferView" : 32,
            "componentType" : 5126,
            "count" : 72,
            "type" : "VEC2"
        },
        {
            "bufferView" : 33,
            "componentType" : 5123,
            "count" : 72,
            "type" : "VEC4"
        },
        {
            "bufferView" : 34,
            "componentType" : 5126,
            "count" : 72,
            "type" : "VEC4"
        },
        {
            "bufferView" : 35,
            "componentType" : 5123,
            "count" : 120,
            "type" : "SCALAR"
        },
        {
            "bufferView" : 36,
            "componentType" : 5126,
            "count" : 444,
            "max" : [
                0.737707257270813,
                0.9575754404067993,
                1.0975559949874878
            ],
            "min" : [
                -0.7377068400382996,
                -0.015192919410765171,
                0.9069340229034424
            ],
            "type" : "VEC3"
        },
        {
            "bufferView" : 37,
            "componentType" : 5126,
            "count" : 444,
            "type" : "VEC3"
        },
        {
            "bufferView" : 38,
            "componentType" : 5126,
            "count" : 444,
            "type" : "VEC2"
        },
        {
            "bufferView" : 39,
            "componentType" : 5123,
            "count" : 444,
            "type" : "VEC4"
        },
        {
            "bufferView" : 40,
            "componentType" : 5126,
            "count" : 444,
            "type" : "VEC4"
        },
        {
            "bufferView" : 41,
            "componentType" : 5123,
            "count" : 846,
            "type" : "SCALAR"
        },
        {
            "bufferView" : 42,
            "componentType" : 5126,
            "count" : 32,
            "max" : [
                0.714908242225647,
                0.8468416929244995,
                1.0037540197372437
            ],
            "min" : [
                -0.7149078249931335,
                0.5387902855873108,
                1.0037540197372437
            ],
            "type" : "VEC3"
        },
        {
            "bufferView" : 43,
            "componentType" : 5126,
            "count" : 32,
            "type" : "VEC3"
        },
        {
            "bufferView" : 44,
            "componentType" : 5126,
            "count" : 32,
            "type" : "VEC2"
        },
        {
            "bufferView" : 45,
            "componentType" : 5123,
            "count" : 32,
            "type" : "VEC4"
        },
        {
            "bufferView" : 46,
            "componentType" : 5126,
            "count" : 32,
            "type" : "VEC4"
        },
        {
            "bufferView" : 47,
            "componentType" : 5123,
            "count" : 48,
            "type" : "SCALAR"
        }
    ],
    "bufferViews" : [
        {
            "buffer" : 0,
            "byteLength" : 3936,
            "byteOffset" : 0
        },
        {
            "buffer" : 0,
            "byteLength" : 3936,
            "byteOffset" : 3936
        },
        {
            "buffer" : 0,
            "byteLength" : 2624,
            "byteOffset" : 7872
        },
        {
            "buffer" : 0,
            "byteLength" : 2624,
            "byteOffset" : 10496
        },
        {
            "buffer" : 0,
            "byteLength" : 5248,
            "byteOffset" : 13120
        },
        {
            "buffer" : 0,
            "byteLength" : 1392,
            "byteOffset" : 18368
        },
        {
            "buffer" : 0,
            "byteLength" : 8784,
            "byteOffset" : 19760
        },
        {
            "buffer" : 0,
            "byteLength" : 8784,
            "byteOffset" : 28544
        },
        {
            "buffer" : 0,
            "byteLength" : 5856,
            "byteOffset" : 37328
        },
        {
            "buffer" : 0,
            "byteLength" : 5856,
            "byteOffset" : 43184
        },
        {
            "buffer" : 0,
            "byteLength" : 11712,
            "byteOffset" : 49040
        },
        {
            "buffer" : 0,
            "byteLength" : 2268,
            "byteOffset" : 60752
        },
        {
            "buffer" : 0,
            "byteLength" : 1656,
            "byteOffset" : 63020
        },
        {
            "buffer" : 0,
            "byteLength" : 1656,
            "byteOffset" : 64676
        },
        {
            "buffer" : 0,
            "byteLength" : 1104,
            "byteOffset" : 66332
        },
        {
            "buffer" : 0,
            "byteLength" : 1104,
            "byteOffset" : 67436
        },
        {
            "buffer" : 0,
            "byteLength" : 2208,
            "byteOffset" : 68540
        },
        {
            "buffer" : 0,
            "byteLength" : 588,
            "byteOffset" : 70748
        },
        {
            "buffer" : 0,
            "byteLength" : 17376,
            "byteOffset" : 71336
        },
        {
            "buffer" : 0,
            "byteLength" : 17376,
            "byteOffset" : 88712
        },
        {
            "buffer" : 0,
            "byteLength" : 11584,
            "byteOffset" : 106088
        },
        {
            "buffer" : 0,
            "byteLength" : 11584,
            "byteOffset" : 117672
        },
        {
            "buffer" : 0,
            "byteLength" : 23168,
            "byteOffset" : 129256
        },
        {
            "buffer" : 0,
            "byteLength" : 5028,
            "byteOffset" : 152424
        },
        {
            "buffer" : 0,
            "byteLength" : 22512,
            "byteOffset" : 157452
        },
        {
            "buffer" : 0,
            "byteLength" : 22512,
            "byteOffset" : 179964
        },
        {
            "buffer" : 0,
            "byteLength" : 15008,
            "byteOffset" : 202476
        },
        {
            "buffer" : 0,
            "byteLength" : 15008,
            "byteOffset" : 217484
        },
        {
            "buffer" : 0,
            "byteLength" : 30016,
            "byteOffset" : 232492
        },
        {
            "buffer" : 0,
            "byteLength" : 5640,
            "byteOffset" : 262508
        },
        {
            "buffer" : 0,
            "byteLength" : 864,
            "byteOffset" : 268148
        },
        {
            "buffer" : 0,
            "byteLength" : 864,
            "byteOffset" : 269012
        },
        {
            "buffer" : 0,
            "byteLength" : 576,
            "byteOffset" : 269876
        },
        {
            "buffer" : 0,
            "byteLength" : 576,
            "byteOffset" : 270452
        },
        {
            "buffer" : 0,
            "byteLength" : 1152,
            "byteOffset" : 271028
        },
        {
            "buffer" : 0,
            "byteLength" : 240,
            "byteOffset" : 272180
        },
        {
            "buffer" : 0,
            "byteLength" : 5328,
            "byteOffset" : 272420
        },
        {
            "buffer" : 0,
            "byteLength" : 5328,
            "byteOffset" : 277748
        },
        {
            "buffer" : 0,
            "byteLength" : 3552,
            "byteOffset" : 283076
        },
        {
            "buffer" : 0,
            "byteLength" : 3552,
            "byteOffset" : 286628
        },
        {
            "buffer" : 0,
            "byteLength" : 7104,
            "byteOffset" : 290180
        },
        {
            "buffer" : 0,
            "byteLength" : 1692,
            "byteOffset" : 297284
        },
        {
            "buffer" : 0,
            "byteLength" : 384,
            "byteOffset" : 298976
        },
        {
            "buffer" : 0,
            "byteLength" : 384,
            "byteOffset" : 299360
        },
        {
            "buffer" : 0,
            "byteLength" : 256,
            "byteOffset" : 299744
        },
        {
            "buffer" : 0,
            "byteLength" : 256,
            "byteOffset" : 300000
        },
        {
            "buffer" : 0,
            "byteLength" : 512,
            "byteOffset" : 300256
        },
        {
            "buffer" : 0,
            "byteLength" : 96,
            "byteOffset" : 300768
        }
    ],
    "buffers" : [
        {
            "byteLength" : 300864,
            "uri" : "data:application/octet-stream;base64,"
        }
    ]
}
